<?xml version="1.0" standalone="no"?>
<!DOCTYPE svg PUBLIC "-//W3C//DTD SVG 20010904//EN"
 "http://www.w3.org/TR/2001/REC-SVG-20010904/DTD/svg10.dtd">
<svg version="1.0" xmlns="http://www.w3.org/2000/svg"
 width="1548.000000pt" height="1548.000000pt" viewBox="0 0 1548.000000 1548.000000"
 preserveAspectRatio="xMidYMid meet">
<metadata>
Created by potrace 1.11, written by Peter Selinger 2001-2013
</metadata>
<g transform="translate(0.000000,1548.000000) scale(0.100000,-0.100000)"
fill="#000000" stroke="none">
<path d="M7464 11071 c-103 -58 -130 -73 -145 -87 -9 -8 -19 -11 -22 -7 -4 3
-7 1 -7 -5 0 -7 -5 -12 -10 -12 -6 0 -16 -4 -23 -10 -7 -5 -109 -74 -227 -152
-118 -78 -219 -146 -225 -151 -5 -4 -50 -35 -100 -69 -49 -34 -124 -85 -165
-113 -41 -28 -120 -82 -175 -119 -55 -38 -102 -71 -105 -75 -3 -3 -36 -27 -75
-51 -112 -72 -106 -60 -108 -199 -1 -66 2 -121 6 -121 5 0 6 -4 2 -10 -3 -5
-5 -29 -5 -52 1 -70 1 -75 0 -160 -1 -46 -1 -87 0 -93 1 -5 2 -13 0 -17 -2 -9
-2 -95 0 -105 1 -5 2 -28 3 -53 l2 -45 65 -5 c36 -3 106 -3 155 0 l90 5 0 33
c0 17 2 32 5 32 7 0 5 54 -3 66 -3 6 -2 16 3 23 4 8 4 27 0 42 -5 16 -6 29 -2
29 8 0 8 53 -1 66 -3 6 -2 16 3 23 4 8 4 26 0 42 -5 15 -6 30 -2 33 8 9 8 66
0 66 -4 0 -4 10 1 23 5 12 5 32 0 44 -4 12 -4 25 1 28 4 3 6 13 4 23 -6 23 2
32 66 72 30 19 61 40 68 47 7 7 19 13 27 13 7 0 15 4 17 9 2 4 48 37 103 72
55 35 105 67 110 71 6 5 60 40 120 80 61 39 156 102 213 140 56 37 105 68 107
68 3 0 23 12 44 28 57 40 70 48 146 97 73 47 98 63 120 80 17 12 25 83 13 107
-5 10 -4 19 2 23 6 4 8 10 6 14 -3 4 -7 45 -10 92 -5 99 -13 136 -30 142 -7 3
-35 -7 -62 -22z"/>
<path d="M7900 11068 c-7 -19 -15 -103 -18 -195 -4 -139 -2 -163 10 -163 8 0
25 -9 38 -20 13 -11 29 -20 36 -20 7 0 14 -3 16 -7 3 -8 54 -42 258 -175 278
-181 426 -278 437 -288 7 -5 24 -15 38 -22 14 -6 25 -15 25 -20 0 -4 4 -8 9
-8 12 0 105 -61 109 -72 2 -4 8 -8 13 -8 5 0 45 -24 88 -52 l80 -53 0 -277 c0
-153 2 -282 5 -287 4 -5 2 -11 -4 -13 -13 -4 2 -26 20 -28 8 -1 80 -2 159 -1
121 1 142 3 138 16 -4 8 -2 17 3 20 6 3 6 15 0 30 -5 14 -6 25 -2 25 6 0 8 59
2 68 -2 3 -2 71 0 75 6 9 3 114 -2 110 -5 -2 -4 7 1 20 6 14 7 28 4 31 -8 7
-10 76 -3 76 7 0 3 77 -5 90 -3 6 -3 10 2 10 7 0 9 54 3 70 -1 3 -2 8 -1 12 1
8 1 90 0 120 0 11 -45 48 -112 94 -62 43 -113 81 -115 86 -2 4 -8 8 -13 8 -11
0 -363 241 -367 252 -2 4 -7 8 -12 8 -7 0 -208 134 -235 157 -5 5 -72 49 -148
98 -172 113 -189 123 -207 132 -8 3 -17 9 -20 12 -3 3 -16 13 -30 21 -118 68
-176 100 -181 100 -4 0 -13 -15 -19 -32z"/>
<path d="M5600 10935 c-52 -35 -99 -67 -105 -72 -13 -11 -97 -67 -110 -73 -5
-3 -80 -52 -165 -110 -85 -58 -159 -107 -165 -110 -31 -16 -231 -153 -233
-161 -2 -5 -8 -7 -13 -3 -5 3 -9 0 -9 -5 0 -6 -4 -11 -10 -11 -7 0 -99 -59
-135 -87 -5 -5 -35 -24 -65 -43 -30 -19 -61 -40 -68 -47 -7 -7 -17 -13 -21
-13 -4 0 -20 -11 -36 -24 -26 -22 -28 -29 -28 -100 0 -42 2 -79 5 -82 3 -3 2
-21 -3 -41 -4 -21 -4 -44 1 -54 5 -9 7 -19 4 -22 -3 -3 -5 -45 -5 -94 1 -155
1 -165 -4 -174 -3 -5 -1 -18 5 -29 8 -14 8 -20 0 -20 -6 0 -8 -5 -4 -12 7 -12
7 -67 0 -105 -6 -26 13 -44 41 -39 11 2 26 0 33 -4 8 -5 22 -4 31 1 11 6 20 5
24 -1 4 -6 15 -6 30 0 14 5 25 6 25 2 0 -11 81 -5 93 7 6 6 9 121 9 289 l-1
280 44 31 c24 17 48 31 54 31 6 0 11 5 11 10 0 6 7 10 15 10 8 0 15 4 15 8 0
5 15 16 33 25 38 20 70 40 77 48 3 3 28 19 55 34 28 16 52 32 55 35 3 3 34 24
70 45 36 22 70 43 75 47 25 20 87 58 95 58 4 0 10 3 12 8 2 4 44 34 93 66 50
32 92 63 93 68 2 4 8 8 14 8 6 0 23 10 38 23 15 12 40 31 55 42 38 28 38 28
54 48 18 23 37 121 35 182 -3 80 -12 186 -16 190 -1 2 -46 -25 -98 -60z"/>
<path d="M6079 10988 c-3 -83 -3 -128 1 -128 3 0 5 -31 5 -69 -1 -91 24 -168
65 -202 18 -15 39 -26 48 -24 10 2 20 4 23 4 8 1 129 93 173 132 43 37 48 53
26 82 -22 28 -152 116 -245 167 -33 18 -64 36 -69 41 -14 13 -26 11 -27 -3z"/>
<path d="M9259 10958 c-70 -45 -206 -144 -227 -165 -7 -7 -18 -13 -23 -13 -53
0 145 -189 219 -210 51 -14 108 51 118 135 3 25 14 155 16 190 1 17 -12 87
-18 96 -9 14 -17 11 -85 -33z"/>
<path d="M9739 10979 c0 -13 -2 -33 -5 -44 -8 -41 -10 -221 -3 -254 5 -21 22
-47 46 -67 21 -18 46 -39 56 -48 9 -9 20 -16 23 -16 3 0 24 -15 47 -34 49 -39
245 -176 253 -176 3 0 14 -9 26 -20 12 -11 27 -20 34 -20 6 0 14 -7 18 -15 3
-8 10 -15 16 -15 7 0 54 -29 106 -65 52 -36 99 -65 104 -65 6 0 10 -4 10 -8 0
-5 21 -22 48 -39 110 -72 165 -157 177 -274 12 -116 15 -143 20 -234 8 -138
16 -174 39 -176 6 0 20 -3 31 -5 24 -5 205 -7 211 -2 4 4 6 301 4 583 l-1 180
-116 75 c-64 41 -122 81 -129 88 -8 7 -14 10 -14 5 0 -4 -4 -3 -8 3 -9 13
-581 394 -592 394 -5 0 -10 4 -12 8 -1 5 -84 62 -183 127 -99 65 -186 122
-192 128 -10 7 -13 3 -14 -14z"/>
<path d="M7063 9958 c-24 -6 -28 -12 -27 -41 1 -19 3 -38 6 -43 3 -5 2 -18 -2
-29 -4 -11 -4 -34 1 -52 4 -18 4 -33 0 -33 -7 0 -5 -86 3 -106 3 -8 2 -14 -2
-14 -8 0 -6 -85 2 -106 3 -8 2 -14 -2 -14 -8 0 -6 -85 2 -106 3 -8 2 -14 -2
-14 -8 0 -6 -85 2 -106 3 -8 2 -14 -2 -14 -8 0 -6 -85 2 -106 3 -8 1 -14 -5
-14 -6 0 -8 -4 -4 -9 3 -5 5 -31 5 -58 0 -26 0 -56 0 -65 0 -35 0 -54 -1 -112
0 -45 4 -61 18 -72 32 -25 327 -245 352 -262 13 -9 32 -25 43 -34 10 -10 23
-18 28 -18 6 0 10 -4 10 -10 0 -5 7 -10 15 -10 8 0 15 -4 15 -8 0 -4 13 -16
30 -25 16 -10 35 -23 42 -30 7 -7 37 -29 67 -49 46 -32 57 -35 75 -26 22 12
121 82 170 120 16 13 34 25 40 27 6 2 13 7 16 10 3 4 34 28 70 54 36 27 72 53
80 60 8 7 29 21 45 31 17 11 34 25 38 33 4 7 14 13 22 13 7 0 15 3 17 8 3 6
75 61 147 112 17 12 22 25 21 60 0 25 1 70 2 102 2 31 0 54 -4 51 -5 -2 -4 6
1 19 4 13 5 31 2 42 -4 10 -6 32 -4 50 2 17 3 55 3 84 0 28 0 59 0 67 0 19 0
36 0 78 0 17 1 57 2 89 2 31 0 54 -4 51 -5 -2 -4 6 1 19 4 13 5 31 2 42 -4 10
-6 32 -4 50 6 54 5 277 0 283 -3 3 -3 11 0 19 5 15 -4 16 -132 16 -33 0 -82
-1 -110 -1 -27 -1 -182 0 -342 1 -191 2 -293 -1 -293 -7 0 -7 -3 -7 -8 0 -8
12 -406 14 -449 3z m711 -389 c27 -18 95 -107 130 -168 49 -86 103 -185 133
-246 14 -27 30 -58 35 -69 14 -27 -5 -41 -61 -41 -50 1 -103 31 -116 67 -4 10
-12 24 -20 31 -7 8 -27 40 -43 73 -17 33 -37 66 -46 73 -9 8 -16 19 -16 25 0
6 -12 19 -25 29 -41 29 -52 18 -163 -172 -44 -74 -76 -109 -111 -123 -27 -10
-97 -2 -106 13 -6 8 74 170 140 284 19 33 42 75 51 93 9 17 20 32 25 32 5 0 9
6 9 13 1 31 91 107 128 107 14 0 40 -9 56 -21z"/>
<path d="M4442 9070 c-5 -8 -7 -24 -5 -35 5 -24 5 -26 2 -97 -2 -32 0 -60 3
-63 3 -3 2 -22 -3 -42 -4 -20 -4 -44 0 -52 5 -9 7 -25 4 -36 -8 -42 -9 -75 -2
-87 4 -7 3 -18 -2 -24 -7 -8 -6 -14 1 -19 7 -4 7 -13 -1 -27 -9 -16 -8 -19 3
-13 9 6 10 5 2 -4 -7 -7 -8 -29 -4 -56 4 -25 3 -45 -1 -45 -4 0 -4 -13 1 -29
4 -16 6 -32 3 -35 -7 -7 -7 -165 -1 -172 3 -3 2 -21 -3 -41 -4 -20 -5 -41 -2
-46 7 -11 10 -77 3 -77 -9 0 -2 -92 8 -102 12 -12 82 -17 82 -6 0 5 5 6 11 3
15 -10 69 -12 69 -3 0 4 6 5 13 3 22 -8 127 -11 127 -3 0 4 11 3 24 -2 15 -5
27 -5 34 2 6 6 12 6 16 -1 5 -7 15 -7 31 -1 14 5 25 6 25 2 0 -4 29 -7 65 -7
36 0 65 4 65 8 0 5 5 5 11 2 15 -10 69 -12 69 -3 0 4 6 5 13 3 21 -9 187 -11
187 -3 0 4 11 3 25 -2 15 -6 27 -6 30 0 3 5 12 7 20 4 21 -9 245 -10 245 -2 0
4 11 3 25 -2 15 -6 25 -6 25 0 0 5 12 5 28 1 27 -8 28 -7 30 27 2 20 5 38 7
40 2 3 0 13 -5 23 -6 10 -7 20 -3 22 5 3 7 29 5 59 -1 29 -3 60 -3 68 0 8 0
20 1 25 7 31 -1 57 -15 52 -8 -4 -17 -2 -20 3 -4 7 -13 6 -26 0 -10 -6 -19 -7
-19 -3 0 4 -34 8 -75 8 -41 0 -75 -3 -75 -7 0 -4 -11 -3 -24 2 -15 5 -27 5
-34 -2 -6 -6 -12 -6 -16 1 -4 7 -15 7 -30 1 -13 -5 -27 -6 -30 -3 -9 9 -126 9
-126 0 0 -5 -5 -5 -11 -2 -15 10 -69 12 -69 3 0 -4 -6 -5 -13 -3 -21 9 -187
11 -187 3 0 -4 -11 -3 -25 2 -15 6 -26 6 -30 -1 -4 -5 -11 -7 -16 -3 -6 3 -43
6 -84 6 l-73 0 -1 207 c-1 113 -1 213 -2 221 0 8 1 78 1 155 2 211 2 217 -12
212 -7 -2 -21 0 -30 4 -10 6 -19 5 -23 -1 -3 -5 -12 -7 -20 -4 -8 4 -53 7 -99
8 -65 1 -86 -2 -94 -14z"/>
<path d="M10724 9074 c2 -6 1 -17 -4 -24 -4 -7 -4 -25 0 -41 5 -15 6 -30 3
-33 -8 -8 -9 -146 -1 -146 4 0 3 -11 -2 -25 -5 -14 -5 -27 0 -30 5 -3 5 -18 0
-35 -5 -18 -5 -30 0 -30 6 0 6 -10 0 -24 -5 -13 -6 -27 -3 -30 6 -5 7 -63 3
-83 -4 -21 -2 -132 3 -140 3 -5 2 -15 -3 -22 -4 -8 -4 -27 0 -42 5 -16 5 -29
1 -29 -5 0 -6 -11 -4 -24 4 -17 -1 -27 -15 -35 -11 -6 -22 -7 -26 -4 -9 10
-56 10 -56 0 0 -4 -4 -5 -10 -2 -16 10 -100 12 -100 3 0 -5 -5 -6 -11 -3 -15
10 -69 12 -69 3 0 -4 -6 -5 -12 -3 -23 8 -128 11 -128 3 0 -4 -11 -3 -24 2
-15 5 -27 5 -34 -2 -6 -6 -12 -6 -16 1 -4 7 -15 7 -30 1 -13 -5 -27 -6 -30 -3
-9 9 -126 9 -126 0 0 -5 -5 -5 -11 -2 -13 9 -69 13 -69 6 0 -8 -69 -6 -76 2
-3 3 -17 2 -30 -3 -15 -6 -24 -6 -24 0 0 6 -9 6 -25 0 -14 -5 -25 -6 -25 -1 0
4 -11 6 -25 3 -28 -5 -28 -4 -25 -197 2 -136 -3 -128 68 -129 34 0 62 3 62 7
0 5 5 5 11 2 16 -10 109 -12 109 -2 0 4 5 5 11 2 15 -10 69 -12 69 -3 0 4 6 5
13 3 22 -8 127 -11 127 -3 0 4 11 3 24 -2 15 -5 27 -5 34 2 6 6 12 6 16 -1 5
-7 15 -7 31 -1 14 5 25 6 25 2 0 -4 29 -7 65 -7 36 0 65 4 65 8 0 5 5 5 11 2
13 -9 69 -13 69 -6 0 5 70 6 78 1 7 -5 59 -3 68 3 5 3 16 2 24 -3 7 -4 24 -4
37 1 13 5 22 6 20 1 -3 -4 8 -7 24 -7 16 0 29 4 29 8 0 5 5 5 11 2 15 -10 109
-12 109 -2 0 4 8 3 19 -2 13 -7 23 -7 35 2 15 11 17 60 17 557 0 495 -1 546
-17 557 -10 8 -24 9 -39 3 -13 -5 -26 -6 -29 -2 -6 5 -76 7 -101 2 -5 -1 -12
-2 -15 0 -21 7 -80 3 -76 -6z"/>
<path d="M6108 9002 c-16 -2 -28 -9 -29 -15 -1 -27 0 -195 2 -203 1 -5 1 -11
0 -14 -5 -13 -5 -110 -1 -110 3 0 5 -29 5 -65 0 -36 -2 -65 -5 -65 -7 0 -4
-579 3 -586 2 -3 1 -20 -3 -39 -4 -19 -6 -36 -3 -39 3 -2 5 -27 5 -54 -1 -39
3 -49 16 -50 9 -1 314 -1 677 -1 363 0 665 0 670 0 6 0 24 -1 40 -2 77 -3 77
-3 73 46 -2 25 -1 45 2 45 3 0 4 39 2 87 -1 49 -2 100 -2 116 l0 27 -579 0
-579 0 2 30 c1 17 -1 30 -6 30 -4 0 -3 11 2 25 6 15 6 26 0 30 -6 4 -7 13 -1
24 5 9 6 23 1 31 -4 7 -4 24 0 36 6 14 5 26 0 29 -6 4 -7 13 -1 23 6 11 6 24
0 34 -6 10 -6 19 0 23 7 4 7 15 1 30 -5 14 -6 25 -2 25 4 0 7 38 7 85 0 47 -3
85 -7 85 -4 0 -3 11 2 25 6 15 6 26 0 30 -6 4 -7 13 -1 24 5 9 6 23 1 31 -4 7
-4 24 0 36 6 14 5 26 0 29 -6 4 -7 13 -1 23 6 11 6 24 0 34 -6 10 -6 19 0 23
7 4 7 15 1 30 -5 14 -6 25 -2 25 8 0 8 57 0 65 -6 6 -249 12 -290 7z"/>
<path d="M9085 9000 c-38 -4 -49 -9 -47 -20 2 -8 4 -22 3 -30 0 -8 0 -207 -1
-442 l-1 -427 -576 -1 c-317 0 -578 -2 -580 -4 -2 -2 -4 -73 -4 -157 l-1 -154
39 -2 c21 -1 53 -4 71 -7 18 -2 35 0 38 5 3 5 10 7 15 3 6 -3 36 -5 67 -4 31
1 62 1 67 1 31 -1 124 -1 185 0 25 0 50 1 55 0 16 -1 99 -1 115 0 8 0 33 0 55
0 22 -1 47 -1 55 -1 8 1 38 1 65 0 73 0 85 0 135 1 25 0 50 1 55 0 16 -1 99
-1 115 0 8 0 33 0 55 0 22 -1 47 -1 55 -1 8 1 38 1 65 0 28 0 59 0 70 0 11 0
35 0 54 0 19 0 38 3 43 8 10 10 13 95 4 111 -4 6 -4 11 1 11 9 0 8 122 -1 146
-3 7 -2 14 2 14 8 0 7 83 -2 105 -3 8 -2 15 2 15 6 0 8 59 2 68 -2 3 -2 71 0
75 6 9 3 114 -2 110 -5 -2 -4 7 1 20 6 14 7 28 4 31 -8 7 -10 76 -3 76 7 0 3
77 -5 90 -3 6 -3 10 2 10 9 0 10 57 1 65 -3 3 -2 25 2 49 3 24 3 53 -1 65 -5
11 -5 21 -1 21 4 0 7 27 7 60 0 33 -3 60 -7 60 -4 0 -5 7 -2 15 5 12 -3 15
-37 15 -24 1 -75 2 -114 3 -38 1 -92 0 -120 -3z"/>
<path d="M8475 6703 c-23 -22 -32 -50 -34 -103 -1 -35 13 -107 22 -111 1 0 22
-2 47 -5 62 -6 83 12 85 72 5 109 -69 199 -120 147z"/>
<path d="M11455 6667 c-20 -12 -24 -19 -31 -72 -34 -253 -33 -1058 2 -1280 13
-81 53 -155 83 -155 23 0 40 58 48 170 11 162 3 1034 -12 1150 -2 19 -7 57
-10 85 -6 49 -31 106 -50 111 -6 2 -19 -2 -30 -9z"/>
<path d="M3016 6603 c-1 -2 -16 -5 -32 -7 -86 -11 -143 -37 -249 -117 -47 -35
-58 -54 -56 -96 1 -7 1 -21 1 -30 0 -10 0 -34 1 -53 1 -19 1 -41 0 -47 -1 -7
-1 -20 -1 -28 0 -8 0 -22 0 -30 0 -8 0 -21 -1 -27 -1 -7 -1 -29 0 -48 1 -19 1
-43 1 -52 0 -10 0 -26 0 -35 0 -10 0 -34 1 -53 1 -19 1 -41 0 -47 -1 -14 -1
-34 -1 -58 1 -21 1 -122 0 -140 -1 -44 -1 -87 4 -260 3 -104 7 -203 11 -220 3
-16 8 -42 11 -57 7 -34 31 -37 43 -5 19 45 24 63 26 87 2 14 6 50 9 80 5 52
14 191 19 305 l2 50 77 0 c43 0 78 3 78 7 0 4 6 5 14 2 19 -7 106 -10 106 -3
0 3 20 3 43 -1 24 -3 52 -3 63 0 10 4 30 4 44 0 14 -4 37 -3 52 1 15 4 30 4
32 0 3 -3 23 -6 45 -4 l40 2 0 -167 c-1 -270 13 -352 61 -352 36 0 48 49 54
211 2 53 6 101 9 106 4 6 4 13 0 16 -8 9 -10 87 -1 87 4 0 3 14 -2 30 -5 17
-6 30 -2 30 4 0 7 14 7 30 0 17 -3 30 -7 30 -4 0 -3 11 2 25 6 15 6 26 0 30
-6 4 -7 13 -1 24 5 9 6 23 2 30 -5 7 -5 27 -1 45 3 17 3 43 -1 59 -4 15 -4 27
0 27 7 0 4 90 -4 98 -3 3 0 11 6 19 6 7 8 13 3 13 -5 0 -9 37 -10 83 -1 93
-10 175 -23 209 -5 13 -10 28 -12 33 -1 6 -23 29 -48 53 -56 53 -147 97 -221
108 -53 7 -188 12 -194 7z m245 -192 c54 -24 75 -46 83 -86 15 -70 17 -82 22
-120 8 -64 8 -237 0 -272 -7 -31 -23 -40 -86 -48 -69 -10 -119 -17 -138 -20
-21 -4 -69 -9 -192 -20 -25 -2 -71 -7 -104 -10 l-58 -7 6 74 c3 40 8 102 11
138 5 57 22 187 29 215 2 6 6 27 11 49 11 56 69 111 131 123 80 17 232 8 285
-16z"/>
<path d="M4276 6323 c-2 -3 -34 -7 -70 -9 -38 -2 -83 -12 -108 -24 -72 -34
-94 -79 -123 -245 -18 -101 -18 -1151 -1 -1240 3 -11 5 -37 5 -57 1 -25 7 -40
19 -47 25 -13 40 -1 47 39 3 19 7 42 10 50 11 43 21 216 30 520 21 720 23 741
71 806 36 49 105 76 194 76 92 0 123 -6 176 -37 29 -17 49 -39 65 -72 22 -46
23 -59 23 -268 0 -121 -3 -238 -6 -260 -4 -22 -8 -51 -11 -65 -16 -100 -67
-159 -143 -165 -112 -9 -163 -19 -208 -40 -41 -20 -52 -43 -31 -64 12 -12 40
-16 133 -16 64 0 137 4 162 9 25 4 52 9 60 11 43 7 113 41 132 64 43 51 48 72
53 229 3 68 7 127 10 133 4 5 1 9 -6 9 -9 0 -10 3 -2 11 6 6 8 23 3 44 -4 18
-4 39 1 46 4 7 6 16 4 19 -2 4 -6 73 -9 154 -3 80 -7 150 -10 155 -3 4 -8 21
-11 37 -9 43 -10 46 -29 84 -33 67 -98 97 -230 106 -44 3 -82 7 -85 8 -3 2
-15 0 -26 -4 -11 -4 -34 -4 -52 0 -18 4 -34 6 -37 3z"/>
<path d="M5537 6324 c-1 -2 -28 -6 -59 -9 -31 -3 -80 -15 -109 -25 -52 -19
-129 -67 -129 -79 0 -4 -8 -16 -17 -27 -19 -21 -23 -32 -28 -79 -2 -16 -4 -30
-5 -30 -10 0 -24 -569 -24 -971 0 -359 4 -393 46 -415 29 -16 65 13 78 61 6
22 13 66 16 98 10 120 14 190 19 289 2 56 6 146 9 200 3 54 8 163 11 243 4 80
8 163 11 185 2 22 6 72 9 110 6 76 12 128 22 190 16 93 16 94 108 123 38 12
187 7 213 -7 11 -6 21 -8 24 -6 9 9 37 -30 42 -58 2 -15 7 -35 10 -45 32 -109
40 -608 11 -684 -8 -21 -61 -40 -147 -54 -16 -2 -43 -7 -60 -10 -18 -3 -42 -7
-53 -9 -11 -2 -22 -4 -25 -6 -3 -1 -9 -3 -15 -4 -31 -4 -85 -39 -85 -55 0 -31
56 -45 180 -45 133 1 173 7 236 36 105 50 143 118 149 272 7 144 7 328 1 334
-3 3 -1 12 5 20 9 9 8 13 0 13 -9 0 -9 5 -1 20 6 11 7 20 3 20 -4 0 -8 30 -9
68 0 37 -4 87 -8 112 -4 25 -8 51 -9 58 0 6 -4 12 -9 12 -4 0 -8 6 -8 13 0 16
-54 64 -99 87 -43 22 -111 41 -166 47 -57 6 -135 10 -138 7z"/>
<path d="M9369 6326 c-2 -2 -39 -7 -82 -10 -96 -7 -132 -22 -179 -74 -79 -87
-119 -182 -111 -263 2 -24 5 -50 5 -56 1 -7 5 -13 10 -13 5 0 6 -4 3 -10 -3
-5 21 -36 53 -67 74 -72 88 -83 105 -83 7 0 17 -4 23 -9 5 -5 59 -26 119 -46
61 -21 140 -53 177 -72 67 -35 137 -99 139 -128 5 -54 1 -68 -25 -95 -43 -46
-68 -62 -130 -84 -93 -35 -212 -22 -262 28 -8 9 -21 19 -28 23 -7 5 -25 29
-40 56 -30 51 -69 87 -95 87 -84 -2 -76 -159 12 -255 55 -60 128 -86 254 -90
51 -2 97 -6 102 -9 4 -3 11 -3 14 1 4 3 30 7 59 9 97 6 147 31 231 117 65 68
85 130 65 202 -5 17 -11 40 -14 53 -10 50 -53 129 -84 155 -34 29 -130 82
-130 72 0 -4 -12 1 -27 9 -16 8 -68 29 -118 46 -209 73 -229 90 -231 193 -2
101 21 136 107 161 144 43 292 -16 335 -133 22 -59 41 -81 70 -81 34 0 59 44
61 108 2 94 -31 156 -105 197 -25 14 -55 27 -68 29 -13 3 -28 7 -33 11 -6 3
-45 8 -87 10 -42 3 -79 7 -84 10 -4 2 -9 3 -11 1z"/>
<path d="M10506 6323 c-1 -1 -17 -4 -36 -7 -64 -11 -125 -29 -141 -43 -8 -7
-20 -13 -26 -13 -17 0 -63 -52 -78 -87 -8 -18 -17 -63 -21 -101 -8 -76 -9
-574 -1 -669 7 -89 38 -147 101 -189 58 -38 104 -48 221 -48 210 1 363 50 437
139 42 50 49 177 11 199 -51 29 -96 2 -143 -85 -73 -138 -331 -176 -433 -64
-10 11 -30 45 -44 75 -62 134 10 231 182 245 187 15 258 30 351 77 84 42 107
82 110 198 3 94 -16 194 -47 250 -47 83 -159 120 -367 124 -41 0 -75 0 -76 -1z
m187 -141 c64 -24 86 -42 117 -97 27 -48 29 -114 5 -159 -18 -32 -69 -66 -100
-66 -8 0 -15 -4 -15 -10 0 -5 -3 -9 -7 -8 -5 1 -35 -4 -68 -11 -106 -24 -220
-32 -250 -19 -46 20 -66 136 -37 210 18 45 78 110 123 134 61 31 181 45 232
26z"/>
<path d="M6620 6310 c-59 -11 -139 -51 -165 -82 -36 -42 -47 -97 -51 -253 -3
-77 -6 -170 -7 -208 -1 -37 1 -67 5 -67 4 0 4 -10 -1 -22 -5 -13 -5 -33 0 -45
4 -12 5 -25 0 -27 -4 -3 -5 -26 -1 -51 4 -25 3 -48 -2 -51 -4 -3 -6 -10 -2
-15 3 -5 7 -61 9 -125 5 -128 17 -189 41 -198 51 -20 66 64 79 449 5 152 13
277 21 340 11 82 12 90 14 93 1 1 3 5 5 10 1 4 5 19 9 34 8 28 67 87 89 89 7
1 23 3 37 5 66 8 146 -51 194 -142 29 -55 50 -82 85 -106 22 -15 25 -15 41 0
19 19 33 52 22 52 -4 0 -7 23 -8 50 -1 55 -19 120 -43 160 -22 34 -61 70 -77
70 -8 0 -14 4 -14 9 0 25 -199 47 -280 31z"/>
<path d="M7335 6300 c-39 -43 10 -90 113 -106 19 -3 44 -8 56 -10 11 -2 37 -6
56 -9 44 -6 77 -13 100 -20 10 -3 28 -8 40 -10 44 -8 95 -42 115 -76 21 -36
32 -189 14 -189 -6 0 -8 -4 -5 -9 6 -9 -74 -53 -90 -50 -5 1 -11 0 -14 -1 -11
-4 -38 -9 -110 -19 -278 -42 -373 -132 -366 -346 7 -177 69 -248 246 -275 126
-19 260 0 285 39 22 36 -33 84 -110 95 -16 2 -30 5 -30 6 0 1 -11 3 -25 4
-111 12 -198 71 -208 142 -4 37 23 89 61 119 73 55 251 97 314 74 34 -13 63
-41 79 -77 13 -33 18 -70 29 -222 10 -141 37 -190 102 -190 25 0 42 7 59 26
27 28 27 32 14 89 -5 22 -11 69 -14 105 -3 36 -8 88 -11 115 -3 28 -7 77 -10
110 -2 33 -7 96 -10 140 -4 44 -8 107 -10 140 -2 33 -4 60 -5 60 -1 0 -4 20
-6 45 -11 102 -52 193 -102 229 -36 25 -105 48 -172 56 -30 3 -62 8 -70 10
-22 6 -144 16 -227 20 -58 2 -76 -1 -88 -15z"/>
<path d="M11944 6294 c-13 -20 -18 -47 -17 -113 0 -71 9 -216 13 -216 1 0 4
-17 15 -90 5 -33 13 -85 21 -125 3 -14 9 -47 14 -75 17 -91 21 -110 26 -127 3
-10 7 -30 10 -45 16 -91 77 -248 108 -278 30 -29 75 -54 106 -58 19 -3 35 -6
35 -7 0 0 24 -2 54 -4 44 -2 59 -8 77 -29 27 -31 24 -67 -10 -142 -44 -94 -91
-127 -221 -151 -5 -1 -12 -3 -15 -4 -3 -1 -12 -3 -20 -5 -62 -12 -115 -76 -73
-89 30 -9 87 -17 113 -17 28 1 53 1 73 0 42 -1 127 14 157 30 48 25 94 88 120
166 12 36 23 73 25 83 2 9 4 18 5 20 2 1 3 5 4 10 8 33 17 72 21 101 3 19 8
37 10 41 2 4 7 26 10 50 3 23 7 45 9 49 2 3 7 31 11 61 4 30 9 59 12 63 3 5 7
25 9 45 1 20 5 48 9 62 3 14 8 45 11 70 3 25 7 52 9 60 2 8 7 31 10 50 3 19 8
46 10 60 3 14 7 41 10 60 3 19 7 46 10 60 3 14 8 45 11 70 3 25 7 56 9 69 22
131 24 283 6 305 -20 24 -84 16 -87 -11 0 -4 -5 -19 -11 -33 -10 -23 -41 -171
-57 -270 -3 -19 -8 -46 -11 -60 -3 -14 -7 -41 -10 -60 -3 -19 -14 -84 -25
-145 -11 -60 -22 -126 -25 -145 -3 -19 -8 -43 -11 -52 -6 -20 -10 -42 -18 -94
-12 -76 -37 -135 -61 -144 -49 -19 -166 12 -180 47 -6 17 -33 110 -40 143 -2
8 -4 16 -5 18 -3 2 -3 2 -15 57 -4 22 -10 47 -12 55 -2 8 -5 26 -7 40 -2 14
-6 32 -9 40 -5 14 -22 85 -31 135 -3 11 -16 76 -29 145 -32 159 -47 246 -51
292 -5 49 -9 53 -50 56 -28 2 -38 -2 -52 -24z"/>
<path d="M8476 6294 c-9 -8 -16 -23 -17 -32 0 -9 -2 -28 -4 -42 -4 -27 -15
-239 -19 -355 -1 -38 1 -80 5 -91 4 -12 5 -25 2 -28 -11 -11 1 -296 18 -420
12 -94 29 -130 68 -151 36 -18 48 -7 59 56 14 75 0 552 -24 814 -3 33 -7 78
-9 100 -6 72 -16 120 -31 143 -17 26 -27 27 -48 6z"/>
</g>
</svg>
