<!DOCTYPE svg PUBLIC "-//W3C//DTD SVG 20010904//EN" "http://www.w3.org/TR/2001/REC-SVG-20010904/DTD/svg10.dtd">
<svg version="1.0" xmlns="http://www.w3.org/2000/svg" width="387px" height="229px" viewBox="0 0 3870 2290" preserveAspectRatio="xMidYMid meet">
<g id="layer101" fill="#2e726c" stroke="none">
 <path d="M997 1904 c-4 -4 -7 -88 -7 -186 0 -214 2 -218 100 -218 91 0 100 13 100 144 0 97 -2 106 -22 120 -24 17 -118 22 -118 7 0 -11 25 -21 55 -21 38 0 49 -25 50 -112 0 -67 -3 -82 -19 -94 -25 -18 -67 -18 -91 0 -17 13 -20 31 -23 182 -4 159 -9 194 -25 178z"/>
 <path d="M1294 1896 c-3 -8 -4 -91 -2 -186 3 -167 4 -172 27 -191 32 -26 120 -26 152 0 22 18 24 26 24 121 0 95 -2 103 -24 121 -16 13 -39 19 -73 19 -62 0 -62 -22 0 -31 23 -3 45 -9 49 -13 14 -14 6 -188 -9 -197 -20 -13 -74 -11 -86 4 -6 7 -14 82 -17 167 -3 85 -8 165 -11 178 -5 25 -22 29 -30 8z"/>
 <path d="M3012 1888 c3 -7 20 -15 39 -18 24 -4 37 -13 47 -33 16 -32 9 -47 -22 -47 -43 0 -58 -22 -77 -121 -23 -120 -24 -169 -4 -169 8 0 15 1 15 3 0 28 44 235 52 244 12 14 44 17 52 5 2 -4 12 -50 21 -102 24 -143 25 -150 41 -150 19 0 18 25 -6 167 -38 228 -41 233 -120 233 -29 0 -40 -4 -38 -12z"/>
 <path d="M670 1632 l0 -161 26 -20 c40 -32 126 -29 159 4 24 23 25 28 25 175 0 127 -2 150 -15 150 -12 0 -15 -14 -15 -65 l0 -65 -75 0 -74 0 -3 67 c-2 42 -8 68 -15 71 -10 3 -13 -33 -13 -156z m168 -27 c11 -10 5 -104 -7 -118 -18 -22 -94 -23 -112 -1 -7 9 -15 43 -17 76 l-5 61 69 -7 c38 -4 70 -9 72 -11z"/>
 <path d="M1600 1661 c0 -123 1 -131 22 -145 32 -23 94 -20 118 4 22 22 28 84 8 78 -7 -3 -19 -16 -26 -31 -16 -34 -49 -44 -71 -23 -12 13 -17 42 -20 131 -2 90 -6 115 -17 115 -11 0 -14 -26 -14 -129z"/>
 <path d="M1860 1783 c-34 -6 -50 -30 -50 -73 0 -44 22 -67 71 -76 78 -13 79 -13 79 -43 0 -37 -14 -47 -77 -56 -38 -5 -53 -11 -53 -22 0 -13 10 -15 62 -9 99 10 104 16 112 140 4 58 9 113 12 121 8 20 -25 32 -37 14 -5 -8 -9 -33 -9 -55 0 -54 -18 -69 -66 -57 -73 17 -71 74 2 83 26 3 39 10 39 20 0 16 -38 22 -85 13z"/>
 <path d="M2122 1778 c-15 -15 -17 -264 -3 -273 16 -10 20 8 27 148 7 135 3 152 -24 125z"/>
 <path d="M2271 1773 c-25 -22 -32 -66 -11 -70 8 -2 20 7 25 19 14 32 55 44 91 27 59 -29 37 -68 -51 -94 -76 -22 -98 -73 -54 -129 17 -22 28 -26 73 -26 64 0 96 20 96 61 0 33 -25 41 -33 9 -7 -28 -51 -46 -85 -34 -21 7 -27 16 -27 39 0 28 5 32 67 53 56 20 68 29 77 54 16 45 14 56 -14 83 -20 20 -34 25 -78 25 -38 0 -61 -6 -76 -17z"/>
 <path d="M2572 1774 c-22 -18 -23 -26 -23 -129 0 -100 2 -112 22 -127 32 -26 132 -25 159 2 20 20 27 83 12 107 -11 17 -58 33 -96 33 -46 0 -71 21 -62 53 3 15 16 31 27 38 32 17 84 3 97 -26 15 -32 42 -33 42 -2 0 38 -34 60 -98 65 -45 3 -62 0 -80 -14z m127 -168 c21 -22 6 -64 -26 -72 -55 -14 -108 33 -89 81 5 15 14 17 53 11 26 -3 54 -13 62 -20z"/>
 <path d="M2861 1771 c-15 -27 -15 -348 0 -357 23 -14 28 17 30 191 2 178 -5 214 -30 166z"/>
 <path d="M2110 1430 c0 -32 23 -42 34 -14 11 29 6 44 -14 44 -16 0 -20 -7 -20 -30z"/>
 <path d="M1520 985 l0 -155 40 0 40 0 0 115 0 115 145 0 145 0 0 40 0 40 -185 0 -185 0 0 -155z"/>
 <path d="M1970 1100 l0 -40 145 0 145 0 0 -115 0 -115 40 0 40 0 0 155 0 155 -185 0 -185 0 0 -40z"/>
 <path d="M1110 950 l0 -140 35 0 35 0 0 100 0 100 125 0 125 0 0 40 0 40 -160 0 -160 0 0 -140z"/>
 <path d="M2430 1050 l0 -40 125 0 125 0 0 -100 0 -100 35 0 35 0 0 140 0 140 -160 0 -160 0 0 -40z"/>
 <path d="M1843 928 l-83 -62 0 -138 0 -138 170 0 170 0 0 138 0 138 -84 62 c-46 34 -85 62 -87 62 -2 -1 -41 -28 -86 -62z m57 -148 c11 -22 25 -40 30 -40 5 0 19 18 30 40 13 26 27 40 40 40 11 0 20 -3 20 -6 0 -3 -16 -35 -36 -70 -46 -83 -62 -83 -108 0 -20 35 -36 67 -36 70 0 3 9 6 20 6 13 0 27 -14 40 -40z"/>
 <path d="M1520 641 l0 -98 176 -121 c97 -67 180 -119 185 -116 5 3 9 25 9 49 l0 44 -145 95 -145 95 0 76 0 75 -40 0 -40 0 0 -99z"/>
 <path d="M2260 665 l0 -76 -145 -95 -145 -95 0 -44 c0 -24 4 -46 9 -49 5 -3 88 49 185 116 l176 121 0 98 0 99 -40 0 -40 0 0 -75z"/>
 <path d="M1110 635 l0 -95 158 -105 157 -105 3 41 c2 22 -2 47 -9 55 -6 7 -62 47 -125 86 l-114 73 0 73 0 72 -35 0 -35 0 0 -95z"/>
 <path d="M2680 701 c0 -15 -3 -49 -6 -75 -7 -46 -7 -46 -121 -121 -62 -41 -116 -81 -119 -89 -3 -8 -4 -30 -2 -50 l3 -36 158 105 157 105 0 95 0 95 -35 0 c-32 0 -35 -3 -35 -29z"/>
 <path d="M1532 428 c-7 -7 -12 -31 -12 -55 l0 -44 28 16 c15 8 36 22 47 30 20 16 20 17 -10 41 -35 28 -37 28 -53 12z"/>
 <path d="M2275 416 c-16 -13 -28 -26 -25 -28 25 -21 78 -58 83 -58 12 0 7 86 -5 98 -16 16 -18 16 -53 -12z"/>
 </g>

</svg>